HIERARCHY
ROOT Hips
{
  OFFSET 51.6623 50.5643 7.52873
  CHANNELS 6 Xposition Yposition Zposition Zrotation Xrotation Yrotation
  JOINT spine
  {
    OFFSET 0 8.81704 0.507024
    CHANNELS 3 Zrotation Xrotation Yrotation
    JOINT spine1
    {
      OFFSET 0 10.7766 0
      CHANNELS 3 Zrotation Xrotation Yrotation
      JOINT spine2
      {
        OFFSET 0 10.3259 0
        CHANNELS 3 Zrotation Xrotation Yrotation
        JOINT Neck
        {
          OFFSET 0 26.511 1.26395
          CHANNELS 3 Zrotation Xrotation Yrotation
          JOINT Head
          {
            OFFSET 0 8.00966 0
            CHANNELS 3 Zrotation Xrotation Yrotation
            End Site
            {
              OFFSET 0 19.3879 -6.39386
            }
          }
        }
        JOINT RightShoulder
        {
          OFFSET -4.34795 11.1512 -0.605422
          CHANNELS 3 Zrotation Xrotation Yrotation
          JOINT RightArm
          {
            OFFSET 0 14.6258 0
            CHANNELS 3 Zrotation Xrotation Yrotation
            JOINT RightArmRoll
            {
              OFFSET 0 7.3834 0
              CHANNELS 3 Zrotation Xrotation Yrotation
              JOINT RightForeArm
              {
                OFFSET 0 21.5052 0
                CHANNELS 3 Zrotation Xrotation Yrotation
                JOINT RightForeArmRoll
                {
                  OFFSET 0 8.28532 0
                  CHANNELS 3 Zrotation Xrotation Yrotation
                  JOINT RightHand
                  {
                    OFFSET 0 16.6268 0
                    CHANNELS 3 Zrotation Xrotation Yrotation
                    End Site
                    {
                      OFFSET 0 0 0
                    }
                  }
                }
              }
            }
          }
        }
        JOINT LeftShoulder
        {
          OFFSET 4.34795 11.1512 -0.605422
          CHANNELS 3 Zrotation Xrotation Yrotation
          JOINT LeftArm
          {
            OFFSET 0 14.6258 0
            CHANNELS 3 Zrotation Xrotation Yrotation
            JOINT LeftArmRoll
            {
              OFFSET 0 7.3834 0
              CHANNELS 3 Zrotation Xrotation Yrotation
              JOINT LeftForeArm
              {
                OFFSET 0 21.5052 0
                CHANNELS 3 Zrotation Xrotation Yrotation
                JOINT LeftForeArmRoll
                {
                  OFFSET 0 8.28532 0
                  CHANNELS 3 Zrotation Xrotation Yrotation
                  JOINT LeftHand
                  {
                    OFFSET 0 16.6268 0
                    CHANNELS 3 Zrotation Xrotation Yrotation
                    End Site
                    {
                      OFFSET 0 0 0
                    }
                  }
                }
              }
            }
          }
        }
      }
    }
  }
  JOINT RightUpLeg
  {
    OFFSET -7.8151 -1.43309 -1.20217
    CHANNELS 3 Zrotation Xrotation Yrotation
    JOINT RightUpLegRoll
    {
      OFFSET 0 19.4959 0
      CHANNELS 3 Zrotation Xrotation Yrotation
      JOINT RightLeg
      {
        OFFSET 0 -24.1427 0
        CHANNELS 3 Zrotation Xrotation Yrotation
        JOINT RightLegRoll
        {
          OFFSET 0 24.2217 0
          CHANNELS 3 Zrotation Xrotation Yrotation
          JOINT RightFoot
          {
            OFFSET 0 20.1605 0
            CHANNELS 3 Zrotation Xrotation Yrotation
            JOINT RightToeBase
            {
              OFFSET 0 16.8532 0
              CHANNELS 3 Zrotation Xrotation Yrotation
              End Site
              {
                OFFSET 0.00714343 8.16187 -0.94078
              }
            }
          }
        }
      }
    }
  }
  JOINT LeftUpLeg
  {
    OFFSET 7.8151 -1.43309 -1.20217
    CHANNELS 3 Zrotation Xrotation Yrotation
    JOINT LeftUpLegRoll
    {
      OFFSET 0 19.496 0
      CHANNELS 3 Zrotation Xrotation Yrotation
      JOINT LeftLeg
      {
        OFFSET 0 24.1426 0
        CHANNELS 3 Zrotation Xrotation Yrotation
        JOINT LeftLegRoll
        {
          OFFSET 0 24.4456 0
          CHANNELS 3 Zrotation Xrotation Yrotation
          JOINT LeftFoot
          {
            OFFSET 0 19.9366 0
            CHANNELS 3 Zrotation Xrotation Yrotation
            JOINT LeftToeBase
            {
              OFFSET 0 16.8532 0
              CHANNELS 3 Zrotation Xrotation Yrotation
              End Site
              {
                OFFSET -0.0320138 8.16186 -0.940781
              }
            }
          }
        }
      }
    }
  }
}
MOTION
Frames: 11
Frame Time: 0.00208333
52.1478 51.0442 7.92057 -3.61479 3.28973 3.66904 0.851663 2.01379 -0.306448 1.73085 8.02435 -0.755883 1.74466 9.66893 -0.786735 -0.267857 28.1001 1.24013 -5.14973 -6.65075 0.27953 53.275 -4.03895 -2.09783 115.1 30.2634 -29.0004 4.2345e-007 1.34129e-006 -1.5275e-006 21.1182 62.7365 -14.4161 -5.75092e-006 -1.14108e-006 -3 8.02891 -4.95147 0.697686 -61.1814 -3.07407 2.14035 -113.266 30.1773 24.8933 -1.7228e-005 1.85548e-006 9.16869e-007 -14.9671 63.4851 11.5218 8.80905e-006 -8.29333e-007 2.99999 -8.02885 -4.95145 -0.697661 56.0235 75.029 131.649 180 7.01425e-015 178.484 -2.01264 73.5101 1.67216 -2.70336e-006 4.08982e-006 2.24118 -30.0005 73.9138 27.2103 8.12781 25.2332 -3.48404 -23.772 78.1868 -157.324 4.54188e-006 -4.6773e-006 -1.37771 166.324 -71.402 162.705 -1.72263e-007 -1.14386e-006 -2.28934 24.7873 74.1654 -26.5548 -8.13475 25.236 3.48737 
52.0771 51.0034 7.90914 -3.62902 3.16745 3.64306 0.853523 2.004 -0.31504 1.73646 8.00462 -0.77343 1.75049 9.64919 -0.804409 -0.25465 28.047 1.26342 -5.13956 -6.60521 0.311423 53.385 -3.99628 -2.07769 115.158 30.3017 -28.8637 4.2345e-007 1.34129e-006 -1.5275e-006 21.1533 62.5583 -14.3972 -5.75092e-006 -1.14108e-006 -3 8.02891 -4.95147 0.697686 -61.2939 -3.06225 2.14304 -113.073 30.2332 24.7282 -1.7228e-005 1.85548e-006 9.16869e-007 -15.0247 63.3399 11.5285 8.80905e-006 -8.29333e-007 2.99999 -8.02885 -4.95145 -0.697661 56.3206 75.108 131.385 180 7.01424e-015 178.481 -2.01793 73.4976 1.67854 -2.70336e-006 4.08982e-006 2.24248 -30.025 73.9104 27.2099 8.12781 25.2332 -3.48404 -24.1551 78.2529 -156.925 4.54188e-006 -4.6773e-006 -1.37969 166.331 -71.3729 162.701 -1.72263e-007 -1.14387e-006 -2.29157 24.8052 74.1696 -26.5636 -8.13475 25.236 3.48737 
52.0605 50.9951 7.87215 -3.64219 3.04452 3.61698 0.85535 1.99463 -0.323319 1.7419 7.98572 -0.790344 1.75616 9.63029 -0.821446 -0.237703 27.991 1.28415 -5.13114 -6.55653 0.341964 53.5061 -3.95656 -2.06034 115.203 30.3439 -28.7286 4.2345e-007 1.34129e-006 -1.5275e-006 21.1875 62.3817 -14.3774 -5.75092e-006 -1.14108e-006 -3 8.02891 -4.95147 0.697686 -61.4052 -3.04924 2.14498 -112.882 30.2898 24.5643 -1.7228e-005 1.85548e-006 9.16869e-007 -15.0815 63.1937 11.5343 8.80905e-006 -8.29333e-007 2.99999 -8.02885 -4.95145 -0.697661 56.6247 75.1867 131.114 180 7.01423e-015 178.478 -2.02385 73.4859 1.68571 -2.70336e-006 4.08982e-006 2.24383 -30.0487 73.9066 27.2089 8.12781 25.2332 -3.48404 -24.5447 78.3203 -156.521 4.54188e-006 -4.6773e-006 -1.38177 166.337 -71.344 162.696 -1.72263e-007 -1.14387e-006 -2.29388 24.8248 74.1744 -26.5737 -8.13475 25.2359 3.48736 
52.0389 50.972 7.87712 -3.65383 2.9211 3.59075 0.857142 1.98566 -0.331176 1.74714 7.96763 -0.806401 1.76161 9.61219 -0.83762 -0.216719 27.9324 1.30167 -5.12463 -6.50553 0.37055 53.6397 -3.92109 -2.04675 115.232 30.3907 -28.5956 4.2345e-007 1.34129e-006 -1.5275e-006 21.2205 62.2061 -14.3562 -5.75092e-006 -1.14108e-006 -3 8.02891 -4.95147 0.697686 -61.5146 -3.0349 2.14602 -112.696 30.3469 24.4027 -1.7228e-005 1.85548e-006 9.16869e-007 -15.1375 63.0459 11.5389 8.80905e-006 -8.29333e-007 2.99999 -8.02885 -4.95145 -0.697661 56.9358 75.2649 130.834 180 7.01423e-015 178.475 -2.03086 73.4752 1.69422 -2.70336e-006 4.08982e-006 2.24523 -30.071 73.9023 27.2067 8.12781 25.2332 -3.48404 -24.9398 78.3893 -156.113 4.54188e-006 -4.6773e-006 -1.38392 166.344 -71.3159 162.692 -1.72263e-007 -1.14386e-006 -2.29626 24.8455 74.1798 -26.5849 -8.13475 25.2359 3.48736 
52.014 50.9484 7.8949 -3.66345 2.79733 3.56433 0.858899 1.97709 -0.3385 1.75211 7.95035 -0.821376 1.76678 9.5949 -0.852706 -0.191404 27.8717 1.31535 -5.12018 -6.45299 0.396578 53.7875 -3.89114 -2.03789 115.245 30.4428 -28.4656 4.2345e-007 1.34129e-006 -1.5275e-006 21.2523 62.0308 -14.3332 -5.75092e-006 -1.14108e-006 -3 8.02891 -4.95147 0.697686 -61.6216 -3.01909 2.14606 -112.514 30.4045 24.2443 -1.7228e-005 1.85548e-006 9.16869e-007 -15.1924 62.896 11.5421 8.80905e-006 -8.29333e-007 2.99999 -8.02885 -4.95145 -0.697661 57.2538 75.3422 130.544 180 7.01422e-015 178.473 -2.03936 73.4659 1.70461 -2.70336e-006 4.08982e-006 2.24667 -30.0909 73.8972 27.203 8.12781 25.2332 -3.48404 -25.3394 78.4603 -155.701 4.54188e-006 -4.6773e-006 -1.38612 166.35 -71.2886 162.688 -1.72263e-007 -1.14386e-006 -2.29864 24.8666 74.1857 -26.597 -8.13475 25.2359 3.48735 
52.0332 50.9518 7.88451 -3.67059 2.67336 3.53769 0.86062 1.96892 -0.345182 1.75678 7.93385 -0.835044 1.77163 9.5784 -0.866477 -0.161471 27.8093 1.32457 -5.11795 -6.39971 0.419445 53.951 -3.86799 -2.03472 115.239 30.5007 -28.3392 4.2345e-007 1.34129e-006 -1.5275e-006 21.2827 61.8554 -14.3079 -5.75092e-006 -1.14108e-006 -3 8.02891 -4.95147 0.697686 -61.7256 -3.00166 2.14495 -112.34 30.4629 24.0902 -1.7228e-005 1.85548e-006 9.16869e-007 -15.2462 62.7433 11.5437 8.80905e-006 -8.29333e-007 2.99999 -8.02885 -4.95145 -0.697661 57.5784 75.4185 130.245 180 7.01421e-015 178.47 -2.0498 73.4583 1.71743 -2.70336e-006 4.08982e-006 2.24814 -30.1079 73.8911 27.1972 8.12781 25.2332 -3.48404 -25.7427 78.5336 -155.288 4.54188e-006 -4.6773e-006 -1.38835 166.355 -71.2627 162.683 -1.72263e-007 -1.14386e-006 -2.301 24.8876 74.1919 -26.6098 -8.13474 25.2359 3.48735 
52.0147 50.9311 7.90104 -3.67478 2.54934 3.51079 0.862304 1.96114 -0.351112 1.7611 7.91814 -0.847183 1.77611 9.56268 -0.87871 -0.126637 27.7455 1.32867 -5.11806 -6.3465 0.43855 54.1316 -3.85291 -2.03823 115.213 30.5652 -28.2172 4.2345e-007 1.34129e-006 -1.5275e-006 21.3116 61.6792 -14.2798 -5.75092e-006 -1.14108e-006 -3 8.02891 -4.95147 0.697686 -61.8261 -2.98246 2.14259 -112.174 30.5219 23.9417 -1.7228e-005 1.85548e-006 9.16869e-007 -15.2988 62.5872 11.5435 8.80905e-006 -8.29333e-007 2.99999 -8.02885 -4.95145 -0.697661 57.9094 75.4935 129.936 180 7.0142e-015 178.467 -2.06259 73.4527 1.73323 -2.70336e-006 4.08982e-006 2.24963 -30.1211 73.8837 27.1888 8.12781 25.2332 -3.48404 -26.1487 78.6096 -154.874 4.54188e-006 -4.6773e-006 -1.3906 166.359 -71.2385 162.679 -1.72263e-007 -1.14387e-006 -2.30329 24.9078 74.1985 -26.623 -8.13474 25.2358 3.48734 
52.0148 50.9331 7.89024 -3.67554 2.42543 3.48359 0.86395 1.95374 -0.356181 1.76502 7.90319 -0.857566 1.78016 9.54773 -0.889177 -0.0866211 27.6807 1.32704 -5.12067 -6.29414 0.45329 54.3311 -3.84719 -2.04937 115.166 30.6369 -28.1003 4.2345e-007 1.34129e-006 -1.5275e-006 21.339 61.5016 -14.2486 -5.75092e-006 -1.14108e-006 -3 8.02891 -4.95147 0.697686 -61.9225 -2.96135 2.13883 -112.017 30.5816 23.7996 -1.7228e-005 1.85548e-006 9.16869e-007 -15.3502 62.4271 11.5412 8.80905e-006 -8.29333e-007 2.99999 -8.02885 -4.95145 -0.697661 58.2468 75.5669 129.616 180 7.01419e-015 178.465 -2.07818 73.4493 1.75254 -2.70336e-006 4.08982e-006 2.25114 -30.1297 73.8749 27.1774 8.12781 25.2332 -3.48404 -26.5565 78.6886 -154.46 4.54188e-006 -4.6773e-006 -1.39283 166.363 -71.2162 162.674 -1.72263e-007 -1.14387e-006 -2.30547 24.9266 74.2052 -26.6363 -8.13474 25.2358 3.48734 
52.0097 50.9112 7.9205 -3.67311 2.3014 3.45598 0.865512 1.94681 -0.360461 1.76846 7.88915 -0.866346 1.78371 9.53369 -0.898029 -0.0395237 27.6134 1.31912 -5.12641 -6.24045 0.463843 54.5589 -3.84981 -2.06829 115.085 30.7183 -27.9881 4.2345e-007 1.34129e-006 -1.5275e-006 21.3671 61.3257 -14.2163 -5.75092e-006 -1.14108e-006 -3 8.02891 -4.95147 0.697686 -62.0195 -2.93786 2.13384 -111.862 30.6433 23.6612 -1.7228e-005 1.85548e-006 9.16869e-007 -15.4019 62.2644 11.5383 8.80905e-006 -8.29333e-007 2.99999 -8.02885 -4.95145 -0.697661 58.5916 75.639 129.285 180 7.01418e-015 178.462 -2.0957 73.4482 1.77427 -2.70336e-006 4.08981e-006 2.25271 -30.1347 73.8647 27.1633 8.12781 25.2332 -3.48404 -26.9696 78.7706 -154.042 4.54188e-006 -4.6773e-006 -1.39515 166.366 -71.1953 162.67 -1.72263e-007 -1.14387e-006 -2.30772 24.9465 74.2128 -26.6514 -8.13474 25.2358 3.48734 
52.036 50.9121 7.92163 -3.66821 2.17692 3.42793 0.866959 1.94039 -0.364133 1.77142 7.87615 -0.873891 1.78677 9.52069 -0.905636 0.0156946 27.5419 1.30527 -5.13558 -6.18288 0.471034 54.8202 -3.85855 -2.09395 114.964 30.8106 -27.8797 4.2345e-007 1.34129e-006 -1.5275e-006 21.3976 61.1544 -14.1848 -5.75092e-006 -1.14108e-006 -3 8.02891 -4.95147 0.697686 -62.1211 -2.91182 2.1279 -111.703 30.7079 23.523 -1.7228e-005 1.85548e-006 9.16869e-007 -15.4553 62.1008 11.5361 8.80905e-006 -8.29333e-007 2.99999 -8.02885 -4.95145 -0.697661 58.945 75.7101 128.943 180 7.01417e-015 178.46 -2.11406 73.4489 1.79696 -2.70336e-006 4.08982e-006 2.25437 -30.1376 73.8535 27.1474 8.12781 25.2332 -3.48404 -27.3921 78.8552 -153.618 4.54188e-006 -4.6773e-006 -1.39762 166.371 -71.1751 162.668 -1.72263e-007 -1.14386e-006 -2.31018 24.9698 74.2219 -26.6696 -8.13473 25.2357 3.48733 
52.0267 50.9083 7.91454 -3.66108 2.05195 3.39952 0.868311 1.93448 -0.367247 1.77398 7.86413 -0.880306 1.78941 9.50867 -0.912104 0.0780205 27.4665 1.28619 -5.1478 -6.12174 0.475237 55.11 -3.87289 -2.12559 114.809 30.9122 -27.7745 4.2345e-007 1.34129e-006 -1.5275e-006 21.4298 60.987 -14.1536 -5.75092e-006 -1.14108e-006 -3 8.02891 -4.95147 0.697686 -62.2259 -2.88352 2.12102 -111.542 30.7747 23.3854 -1.7228e-005 1.85548e-006 9.16869e-007 -15.5097 61.9363 11.5343 8.80905e-006 -8.29333e-007 2.99999 -8.02885 -4.95145 -0.697661 59.307 75.7804 128.589 180 7.01417e-015 178.457 -2.13329 73.4512 1.82066 -2.70336e-006 4.08981e-006 2.25611 -30.1386 73.8415 27.1298 8.12781 25.2332 -3.48404 -27.824 78.9422 -153.187 4.54188e-006 -4.6773e-006 -1.40025 166.375 -71.1554 162.666 -1.72263e-007 -1.14387e-006 -2.31282 24.9961 74.2323 -26.6904 -8.13473 25.2357 3.48733 
